<svg version="1.2" xmlns="http://www.w3.org/2000/svg" viewBox="0 0 700 686" width="700" height="686">
	<style>
		tspan { white-space:pre } 
		.s0 { fill: #000000 } 
		.t1 { font-size: 5px;fill: #000000;font-family: "' Helvetica  Neue'" } 
	</style>
	<g>
		<path class="s0" d="m207.4 45c-7.2 3.4-13.6 8.7-14.7 11.3-5.3 13.2 41.9 112.4 89.8 190.1 17 27.2 32.8 50.2 35.8 51.3 7.2 2.6 6.8 15.8-0.4 18.5-3 1.5-7.9 0.4-10.9-1.9-3-2.3-34.7-14.3-70.5-26.4-64.9-22.3-132-38.9-173.9-43.8-24.1-2.6-25.3-1.9-30.9 29l-2.6 14 34.9 11c19.2 6.4 51.3 14.7 71.7 19.2 37.7 8.3 152.8 23 169 21.9 7.2-0.8 9.8 1.1 10.6 7.5 1.1 6.4-0.8 8.7-5.7 8.7-17 0-147.9 90.5-200.7 138.8-24.1 21.9-24.5 22.3-19.6 33.6 2.6 6.4 8.7 15.5 14 20.4l9.1 8.3 25.3-17c14.3-9.4 39.2-27.9 55.8-41.1 38.9-30.9 122.6-112 126.8-123.4 3.8-9.4 11.7-10.9 18.5-2.6 3.4 4.1 3.8 6.8 0.4 10.9-12.1 14.3-23 221.8-14.3 263.3l3 14.3h22.1 22.3l3-14.3c8.7-41.5-2.3-249-14.3-263.3-3.4-4.1-3-6.8 0.4-10.9 6.8-8.3 14.7-6.8 18.5 2.6 4.1 11.3 87.9 92.4 126.8 123.4 16.6 13.2 41.5 31.7 55.8 41.1l25.3 17 9.1-8.3c5.3-4.9 11.3-14 14-20.4 4.9-11.3 4.5-11.7-19.6-33.6-53.1-48.2-184-138.8-200.9-138.8-4.9 0-6.8-2.3-5.7-8.7 0.8-6.4 3.4-8.3 10.6-7.5 16.6 1.1 131.7-14 169.4-21.9 20-4.5 52.1-12.8 71.3-19.2l35.1-10.9-2.6-14c-5.7-30.9-6.8-31.7-30.9-29-41.9 4.9-109 21.5-173.9 43.8-36 12-67.7 24-70.7 26.3-3 2.3-7.9 3.4-10.9 1.9-7.2-2.6-7.5-15.8-0.4-18.5 14.3-5.7 100.3-160 119.6-215l9.1-25.7-9.4-7.2c-10.6-7.9-27.9-13.2-33.6-9.8-4.5 3-27.2 43-46.8 83.4-20.4 41.1-62.6 158.4-60.4 167.1 1.1 4.5-0.8 8.3-4.1 9.4-9.4 3.8-18.1-1.1-16.2-9.1 2.6-9.4-41.5-130.2-64.1-175-39.7-78.8-43.9-83.3-68.4-70.8z"/>
	</g>
	<text id="Created by nitut786" style="transform: matrix(1,0,0,1,0,715)" >
		<tspan x="0" y="0" class="t1">Created by nitut786
</tspan>
	</text>
	<text id="from the Noun Project" style="transform: matrix(1,0,0,1,0,720)" >
		<tspan x="0" y="0" class="t1">from the Noun Project
</tspan>
	</text>
</svg>